<?xml version="1.0" ?><svg id="Soccer" viewBox="0 0 512 512" xmlns="http://www.w3.org/2000/svg" xmlns:xlink="http://www.w3.org/1999/xlink"><defs><linearGradient gradientUnits="userSpaceOnUse" id="linear-gradient" x1="6.0003" x2="315.0398" y1="206.6673" y2="206.6673"><stop offset="0" stop-color="#009920"/><stop offset="1" stop-color="#008241"/></linearGradient><linearGradient gradientUnits="userSpaceOnUse" id="linear-gradient-2" x1="288.9801" x2="288.9801" y1="155.5336" y2="404.333"><stop offset="0" stop-color="#a0d300"/><stop offset="1" stop-color="#00bc4c"/></linearGradient><linearGradient gradientUnits="userSpaceOnUse" id="linear-gradient-3" x1="357.3944" x2="401.3323" y1="215.0137" y2="291.1165"><stop offset="0.5" stop-color="#fff9e6"/><stop offset="1" stop-color="#ffc8b3"/></linearGradient><linearGradient gradientUnits="userSpaceOnUse" id="linear-gradient-4" x1="177.3022" x2="208.3449" y1="155.3984" y2="209.166"><stop offset="0" stop-color="#fff9e6"/><stop offset="0.7" stop-color="#ffc8b3"/></linearGradient></defs><title/><polygon points="256 117.448 6 261.798 65.039 295.887 315.04 151.537 256 117.448" style="fill:url(#linear-gradient)"/><polygon points="321.961 155.534 71.96 299.883 256 406.147 506 261.798 321.961 155.534" style="fill:url(#linear-gradient-2)"/><polygon points="6 261.798 6 277.118 256 421.468 256 406.147 6 261.798" style="fill:#00682f"/><polygon points="506 261.798 506 277.118 256 421.468 256 406.147 506 261.798" style="fill:#00820c"/><path d="M387.9209,225.7106,294.172,171.5789l27.7888-16.0453-6.921-3.9961-250,144.3493,6.9211,3.9961,27.79-16.0456,93.75,54.1316ZM287.251,175.575l86.8253,50.1356L193.5,329.9762l-86.829-50.1351Z" style="fill:#f7f7f7"/><circle cx="379.3633" cy="253.0651" r="43.9306" style="fill:url(#linear-gradient-3)"/><polygon points="362.577 258.518 368.989 238.786 389.737 238.786 396.149 258.518 379.363 270.714 362.577 258.518" style="fill:#072835"/><path d="M391.229,295.3651l2.4355-4.9326-14.3012-5.01-14.3,5.0137,2.4349,4.9289A44.1821,44.1821,0,0,0,391.229,295.3651Z" style="fill:#072835"/><path d="M342.8,277.421l5.4434.7918.3456-15.1491-9.187-12.0515-3.9354,3.8388a43.99,43.99,0,0,0,7.3334,22.57Z" style="fill:#072835"/><path d="M344.9,225.8171l.9291,5.4221,14.5141-4.3526,8.6225-12.462-4.8667-2.5562A43.9848,43.9848,0,0,0,344.9,225.8171Z" style="fill:#072835"/><path d="M394.6275,211.8684l-4.8694,2.5592,8.625,12.4586,14.5165,4.35.9267-5.4184a43.9779,43.9779,0,0,0-19.1988-13.9491Z" style="fill:#072835"/><path d="M419.3213,251.0111l-9.1838,12.0526.3494,15.15,5.44-.7926a43.9916,43.9916,0,0,0,7.3331-22.57Z" style="fill:#072835"/><polygon points="222.066 130.833 135.615 180.751 135.615 205.002 209.125 162.557 251.384 186.957 251.384 113.904 222.066 130.833" style="fill:#88d3bf"/><path d="M126.3852,261.7979V178.0861a4.6161,4.6161,0,0,1,2.3075-3.9963L253.6914,101.914a4.6148,4.6148,0,0,1,6.9222,3.9963v83.7129c.0012,1.4711-2.065,2.6641-4.6137,2.6641s-4.6148-1.193-4.616-2.6641V113.9041l-115.769,66.8466v81.0469c0,1.4716-2.0661,2.6646-4.6148,2.6646S126.3852,263.2692,126.3852,261.7979Z" style="fill:url(#linear-gradient-4)"/><path d="M126.3852,178.0861a4.6117,4.6117,0,0,1,.6187-2.3075h0a4.6135,4.6135,0,0,1,1.6888-1.6888l122.6917-70.8437-22.02-12.714-125,72.1749c-4.5294,48.3555-20.24,72.0249-20.24,72.0249l42.26,24.4011Z" style="fill:#88d3bf"/><polygon points="182.226 143.179 184.533 141.846 184.533 133.07 192.134 137.458 194.44 136.126 184.533 130.406 184.533 116.417 182.226 117.75 182.226 129.073 172.42 123.412 170.114 124.743 182.226 131.737 182.226 143.179" style="fill:#f7f7f7"/><polygon points="197.851 134.157 200.158 132.825 200.158 124.048 207.758 128.437 210.065 127.105 200.158 121.384 200.158 107.396 197.851 108.728 197.851 120.052 188.045 114.39 185.738 115.722 197.851 122.715 197.851 134.157" style="fill:#f7f7f7"/><polygon points="213.475 125.136 215.783 123.803 215.783 115.026 223.383 119.414 225.691 118.081 215.783 112.361 215.783 98.375 213.475 99.707 213.475 111.028 203.671 105.368 201.363 106.7 213.475 113.694 213.475 125.136" style="fill:#f7f7f7"/><path d="M122.0334,241.3316l4.3512,2.5124v-2.6634l-4.3512-2.5125V223.289l4.3512,2.5125v-2.6646l-4.3512-2.5125v-15.38l4.3512,2.5125v-2.6634l-4.3512-2.5125V187.2017l4.3512,2.5125V187.05l-4.3512-2.5125v-15.38l7.6008,4.3895,2.3069-1.3328-9.9077-5.72V152.5047l-2.3074,1.3328v11.3231l-9.8057-5.6615-2.3066,1.3317,12.1123,6.9944v15.38l-13.3173-7.69V161.5271l-2.0444,1.18c-.0814.8721-.1743,1.7171-.263,2.5722v8.9052L103.1,173.605c-.1138.827-.2259,1.6551-.3454,2.4652l1.347.7774v15.3791l-3.8459-2.2207c-.17.8011-.342,1.5863-.5166,2.366l4.3625,2.5181v15.3814l-7.8355-4.5248q-.3456,1.1561-.692,2.2646l8.5275,4.9236V228.314l-13.0875-7.5566c-.8979,2.197-1.7531,4.1326-2.5384,5.8091V237.244l2.3075,1.3329v-15.289l13.3184,7.6895v15.289l2.3074,1.3328V232.31L119.726,240v15.289l2.3074,1.3317Zm-2.3074-3.9963-13.3173-7.69V214.2666l13.3173,7.69Zm0-18.0426-13.3173-7.69v-15.38l13.3173,7.6895Zm0-18.0448-13.3173-7.6895V178.1793l13.3173,7.6895Z" style="fill:#f7f7f7"/><polygon points="150.975 161.223 153.283 159.891 153.283 151.112 160.884 155.502 163.191 154.17 153.283 148.449 153.283 134.462 150.975 135.794 150.975 147.117 141.17 141.455 138.864 142.787 150.975 149.78 150.975 161.223" style="fill:#f7f7f7"/><polygon points="229.101 116.113 231.409 114.78 231.409 106.005 239.008 110.392 241.315 109.06 231.409 103.34 231.409 91.713 229.364 90.532 229.101 90.684 229.101 102.007 219.296 96.346 216.988 97.679 229.101 104.673 229.101 116.113" style="fill:#f7f7f7"/><polygon points="135.351 170.245 137.658 168.912 137.658 160.136 145.259 164.524 147.566 163.192 137.658 157.471 137.658 143.483 135.351 144.816 135.351 156.139 125.545 150.478 123.238 151.81 135.351 158.803 135.351 170.245" style="fill:#f7f7f7"/><polygon points="166.601 152.2 168.909 150.869 168.909 142.092 176.509 146.48 178.815 145.149 168.909 139.429 168.909 125.44 166.601 126.771 166.601 138.096 156.795 132.434 154.488 133.766 166.601 140.759 166.601 152.2" style="fill:#f7f7f7"/><polygon points="137.658 179.571 135.614 180.75 135.614 205.002 137.658 203.822 137.658 196.223 144.238 200.022 146.545 198.69 137.658 193.56 137.658 179.571" style="fill:#f7f7f7"/><polygon points="168.909 161.526 166.601 162.859 166.601 174.183 156.795 168.521 154.488 169.853 166.601 176.846 166.601 187.11 168.909 185.778 168.909 178.179 175.489 181.978 177.795 180.647 168.909 175.516 168.909 161.526" style="fill:#f7f7f7"/><polygon points="247.033 105.758 247.033 100.734 244.726 99.402 244.726 107.091 247.033 105.758" style="fill:#f7f7f7"/><polygon points="251.383 114.874 250.544 114.389 248.237 115.721 251.383 117.538 251.383 114.874" style="fill:#f7f7f7"/><polygon points="153.283 170.549 150.975 171.881 150.975 183.204 141.17 177.543 138.863 178.874 150.975 185.868 150.975 196.133 153.283 194.8 153.283 187.201 159.864 191.001 162.171 189.669 153.283 184.537 153.283 170.549" style="fill:#f7f7f7"/><polygon points="184.533 152.505 182.226 153.836 182.226 165.161 172.42 159.499 170.114 160.831 182.226 167.824 182.226 178.089 184.533 176.756 184.533 169.157 191.114 172.956 193.421 171.624 184.533 166.493 184.533 152.505" style="fill:#f7f7f7"/><path d="M247.0332,169.1569l4.35,2.5114v-2.6635l-4.35-2.5113V151.1144l4.35,2.5113v-2.6634l-4.35-2.5125V133.07l4.35,2.5125v-2.6657l-4.35-2.5114V116.4162l-2.3074,1.3318v11.3253l-9.8066-5.6627-2.3074,1.3329,12.114,6.9944v15.38l-13.3173-7.69v-13.991l-2.3074,1.3329v11.3253l-9.8077-5.6627-2.3063,1.3317,12.114,6.9956v15.379l-13.3184-7.6906V134.461l-2.3074,1.3318v11.3241l-9.806-5.6626-2.3063,1.3328,12.1123,6.9933v15.2889l2.3074,1.3329v-15.29l13.3184,7.6907v15.2889l2.3074,1.3329v-15.29l13.3173,7.69v15.29l2.3074,1.3318Zm-2.3074-3.9963-13.3173-7.6895V142.092l13.3173,7.6895Z" style="fill:#f7f7f7"/><polygon points="200.158 143.482 197.851 144.815 197.851 156.139 188.044 150.477 185.738 151.808 197.851 158.803 197.851 169.067 200.158 167.735 200.158 160.136 206.738 163.935 209.045 162.603 200.158 157.471 200.158 143.482" style="fill:#f7f7f7"/></svg>